<svg width="23" height="12" viewBox="0 0 23 12" fill="none" xmlns="http://www.w3.org/2000/svg">
<path d="M0.118608 11V0.818182H1.60511V4.60156H1.6946C1.78078 4.44247 1.90507 4.25852 2.06747 4.04972C2.22988 3.84091 2.45526 3.65862 2.74361 3.50284C3.03196 3.34375 3.41312 3.2642 3.88707 3.2642C4.50355 3.2642 5.05374 3.41998 5.53764 3.73153C6.02154 4.04309 6.40104 4.49219 6.67614 5.07884C6.95455 5.66548 7.09375 6.37145 7.09375 7.19673C7.09375 8.02202 6.9562 8.72964 6.68111 9.3196C6.40601 9.90625 6.02817 10.3587 5.54759 10.6768C5.067 10.9917 4.51847 11.1491 3.90199 11.1491C3.43797 11.1491 3.05848 11.0713 2.76349 10.9155C2.47183 10.7597 2.24313 10.5774 2.07741 10.3686C1.9117 10.1598 1.78409 9.9742 1.6946 9.81179H1.57031V11H0.118608ZM1.57528 7.18182C1.57528 7.71875 1.65317 8.18939 1.80895 8.59375C1.96473 8.99811 2.1901 9.31463 2.48509 9.54332C2.78007 9.7687 3.14134 9.88139 3.56889 9.88139C4.01302 9.88139 4.38423 9.76373 4.68253 9.52841C4.98082 9.28977 5.2062 8.96662 5.35866 8.55895C5.51444 8.15128 5.59233 7.69223 5.59233 7.18182C5.59233 6.67803 5.5161 6.22562 5.36364 5.82457C5.21449 5.42353 4.98911 5.10701 4.6875 4.875C4.3892 4.64299 4.01634 4.52699 3.56889 4.52699C3.13802 4.52699 2.77344 4.63802 2.47514 4.86009C2.18016 5.08215 1.95644 5.39205 1.80398 5.78977C1.65152 6.1875 1.57528 6.65151 1.57528 7.18182ZM13.6003 7.8331V3.36364H15.0918V11H13.6301V9.67756H13.5506C13.3749 10.0852 13.0932 10.425 12.7054 10.6967C12.321 10.9652 11.842 11.0994 11.2686 11.0994C10.7781 11.0994 10.3439 10.9917 9.96609 10.7763C9.59156 10.5575 9.29658 10.2344 9.08114 9.80682C8.86902 9.37926 8.76296 8.85062 8.76296 8.22088V3.36364H10.2495V8.0419C10.2495 8.56226 10.3936 8.97656 10.682 9.2848C10.9703 9.59304 11.3449 9.74716 11.8056 9.74716C12.084 9.74716 12.3607 9.67756 12.6358 9.53835C12.9142 9.39915 13.1446 9.18868 13.3269 8.90696C13.5125 8.62524 13.6036 8.26728 13.6003 7.8331ZM22.8114 5.22798L21.4641 5.46662C21.4078 5.29427 21.3183 5.13021 21.1957 4.97443C21.0763 4.81865 20.9139 4.69105 20.7085 4.59162C20.503 4.49219 20.2461 4.44247 19.9379 4.44247C19.5169 4.44247 19.1656 4.53693 18.8839 4.72585C18.6022 4.91146 18.4613 5.15175 18.4613 5.44673C18.4613 5.70194 18.5558 5.90743 18.7447 6.06321C18.9336 6.21899 19.2385 6.34659 19.6594 6.44602L20.8725 6.72443C21.5752 6.88684 22.0988 7.13707 22.4435 7.47514C22.7882 7.81321 22.9606 8.25237 22.9606 8.79261C22.9606 9.25 22.828 9.65767 22.5629 10.0156C22.301 10.3703 21.9348 10.6487 21.4641 10.8509C20.9968 11.053 20.4549 11.1541 19.8384 11.1541C18.9833 11.1541 18.2856 10.9718 17.7454 10.6072C17.2051 10.2393 16.8737 9.71733 16.7511 9.04119L18.1879 8.82244C18.2773 9.19697 18.4613 9.48035 18.7397 9.67259C19.0181 9.86151 19.381 9.95597 19.8285 9.95597C20.3157 9.95597 20.7051 9.85488 20.9968 9.6527C21.2885 9.44721 21.4343 9.19697 21.4343 8.90199C21.4343 8.66335 21.3448 8.46283 21.1658 8.30043C20.9902 8.13802 20.7201 8.01539 20.3555 7.93253L19.0629 7.64915C18.3503 7.48674 17.8233 7.22822 17.4819 6.87358C17.1438 6.51894 16.9748 6.06984 16.9748 5.52628C16.9748 5.07552 17.1007 4.68111 17.3526 4.34304C17.6045 4.00497 17.9525 3.74148 18.3967 3.55256C18.8408 3.36032 19.3496 3.2642 19.9229 3.2642C20.7482 3.2642 21.3978 3.44318 21.8718 3.80114C22.3458 4.15578 22.659 4.63139 22.8114 5.22798Z" fill="black"/>
</svg>
